HIERARCHY
ROOT Hips
{
	OFFSET -0.179506 -22.333345 2.821913
	CHANNELS 6 Xposition Yposition Zposition Zrotation Yrotation Xrotation 
	JOINT LeftUpLeg
	{
		OFFSET 6.951974 -9.140623 -0.681533
		CHANNELS 3 Zrotation Yrotation Xrotation
		JOINT LeftLeg
		{
			OFFSET 3.427654 -37.519855 -0.449580
			CHANNELS 3 Zrotation Yrotation Xrotation
			JOINT LeftFoot
			{
				OFFSET -1.359570 -39.796059 -4.369333
				CHANNELS 3 Zrotation Yrotation Xrotation
				JOINT LeftToe
				{
					OFFSET 2.635814 -5.579078 11.928840
					CHANNELS 3 Zrotation Yrotation Xrotation
					End Site
					{
						OFFSET 0.000000 0.000000 0.000000
					}
				}
			}
		}
	}
	JOINT RightUpLeg
	{
		OFFSET -6.767048 -9.052170 -0.431982
		CHANNELS 3 Zrotation Yrotation Xrotation
		JOINT RightLeg
		{
			OFFSET -3.829005 -38.256897 -0.885003
			CHANNELS 3 Zrotation Yrotation Xrotation
			JOINT RightFoot
			{
				OFFSET 1.577377 -39.841461 -4.231180
				CHANNELS 3 Zrotation Yrotation Xrotation
				JOINT RightToe
				{
					OFFSET -2.537174 -4.814398 12.334795
					CHANNELS 3 Zrotation Yrotation Xrotation
					End Site
					{
						OFFSET 0.000000 0.000000 0.000000
					}
				}
			}
		}
	}
	JOINT Spine
	{
		OFFSET -0.253288 10.896323 -2.669631
		CHANNELS 3 Zrotation Yrotation Xrotation
		JOINT Spine1
		{
			OFFSET 0.548704 13.518043 0.109247
			CHANNELS 3 Zrotation Yrotation Xrotation
			JOINT Spine2
			{
				OFFSET 0.145701 5.292222 2.542457
				CHANNELS 3 Zrotation Yrotation Xrotation
				JOINT Neck
				{
					OFFSET -0.277840 21.387037 -4.285703
					CHANNELS 3 Zrotation Yrotation Xrotation
					JOINT Head
					{
						OFFSET 0.515184 6.496960 5.134897
						CHANNELS 3 Zrotation Yrotation Xrotation
						End Site
						{
							OFFSET 0.000000 0.000000 0.000000
						}
					}
				}
				JOINT LeftShoulder
				{
					OFFSET 7.884473 12.174932 -3.408961
					CHANNELS 3 Zrotation Yrotation Xrotation
					JOINT LeftArm
					{
						OFFSET 9.097692 3.046888 -0.886815
						CHANNELS 3 Zrotation Yrotation Xrotation
						JOINT LeftForeArm
						{
							OFFSET 25.961220 -1.277207 -2.745643
							CHANNELS 3 Zrotation Yrotation Xrotation
							JOINT LeftHand
							{
								OFFSET 24.923361 0.898606 -0.117091
								CHANNELS 3 Zrotation Yrotation Xrotation
								End Site
								{
									OFFSET 0.000000 0.000000 0.000000
								}
							}
						}
					}
				}
				JOINT RightShoulder
				{
					OFFSET -8.175920 11.883285 -3.861528
					CHANNELS 3 Zrotation Yrotation Xrotation
					JOINT RightArm
					{
						OFFSET -9.601238 3.255117 -0.914307
						CHANNELS 3 Zrotation Yrotation Xrotation
						JOINT RightForeArm
						{
							OFFSET -25.374195 -1.332924 -2.140099
							CHANNELS 3 Zrotation Yrotation Xrotation
							JOINT RightHand
							{
								OFFSET -25.529810 0.777228 -0.555919
								CHANNELS 3 Zrotation Yrotation Xrotation
								End Site
								{
									OFFSET 0.000000 0.000000 0.000000
								}
							}
						}
					}
				}
			}
		}
	}
}
MOTION
Frames: 12
Frame Time: 0.033333
-256.347137 241.939117 91.983551 44.114556 -3.544284 92.153752 -0.773278 -13.059974 -31.421709 -7.406715 -1.292997 21.373897 6.402776 6.407058 0.679879 nan nan nan -0.206362 -8.035412 25.265497 0.190910 -3.131197 67.954743 4.098646 -7.719763 -2.803925 nan nan nan -10.583262 15.733906 3.024510 -0.368815 1.647692 10.076524 -1.223456 7.028273 -5.054840 3.591222 -13.019232 -0.456392 15.478621 -10.219809 -22.532857 -15.297276 0.803048 5.622119 -32.719464 12.986203 16.010433 -156.860807 -66.932729 -172.624008 7.628265 -12.856775 -9.294555 14.516851 10.040556 0.043850 51.136754 -1.639452 10.020802 -23.680861 81.049186 -0.081482 5.060876 5.602026 -2.356105 
-254.241714 239.971954 91.307816 45.141974 -3.891901 91.658991 -1.622319 -12.591496 -31.452800 -9.463392 -1.434277 25.879454 7.085730 6.661867 -2.902698 nan nan nan -0.629993 -8.207282 24.005339 -0.865292 -4.398982 72.684226 3.658089 -7.656877 -4.176491 nan nan nan -10.534702 14.999499 4.742064 -0.888318 1.342175 9.314375 -1.119992 6.075140 -5.617432 3.516520 -13.958561 0.068077 15.851434 -8.550585 -22.629082 -18.547597 -0.305498 5.922899 -32.613577 12.124789 16.275159 -163.302211 -66.740564 -168.759814 8.018231 -12.479171 -5.029011 16.328771 9.308750 -0.148764 50.663342 -4.204045 10.148334 -8.673425 78.814752 11.623904 4.432726 5.041722 0.568230 
-252.179016 238.066284 90.531494 46.559581 -4.072745 90.875030 -2.485254 -12.244308 -31.986116 -12.252891 -2.594395 32.113713 9.081394 8.002913 -7.070421 nan nan nan -1.078451 -8.971832 23.014082 -0.930110 -5.024093 77.300507 2.685486 -7.659066 -6.334380 nan nan nan -9.925612 14.127385 6.670672 -1.410981 0.368117 8.524774 -1.333890 5.274237 -5.325761 3.883045 -14.373289 -0.838070 15.965416 -7.278883 -22.062484 -20.798887 -1.918414 5.630146 -32.949162 10.465892 16.032145 -168.191608 -66.171445 -163.302546 9.264050 -11.266583 -4.467185 17.152890 8.907387 -0.862386 50.964960 -6.440846 9.800165 0.625039 76.691915 22.457717 7.331276 3.724548 1.984794 
-250.215714 236.279434 89.844879 47.890002 -4.544766 90.495073 -3.287172 -11.669453 -32.621917 -12.627791 -0.783713 37.278927 11.399848 5.503075 -10.843897 nan nan nan -1.542699 -8.963547 20.981738 -1.693802 -5.992777 82.263784 2.848735 -7.245062 -6.794853 nan nan nan -9.939718 13.135955 8.678952 -1.813576 -0.423658 7.822595 -1.485690 4.318913 -5.738126 4.412740 -14.656807 -1.148969 16.140025 -5.794707 -22.177468 -22.712477 -3.411726 5.492731 -33.663085 7.962342 16.283623 -174.138237 -65.524612 -157.059943 10.254617 -10.637315 -2.693315 18.148709 8.361616 -1.031263 51.313700 -8.654909 10.084471 2.538063 74.847434 24.622030 9.677450 3.186559 3.472453 
-248.401627 234.568207 89.290176 48.767688 -5.157020 89.985462 -3.578453 -12.099637 -31.511318 -12.831158 1.880699 39.666639 9.437319 4.617946 -14.524920 nan nan nan -0.991239 -7.540438 18.126313 -2.752323 -6.982681 87.919382 4.488187 -6.219630 -7.936580 nan nan nan -10.025534 12.375302 10.498346 -2.278962 -0.895643 7.752847 -1.638331 3.247119 -6.030564 5.284669 -13.904133 -1.971545 16.381636 -5.244382 -22.607430 -24.288573 -5.064498 5.001809 -34.687035 5.123282 16.657078 179.766268 -64.862038 -149.839021 6.820680 -11.210825 -2.814963 18.814045 7.931958 -1.499598 51.678841 -10.493715 10.445123 2.588002 73.058401 25.266479 13.640450 3.878371 1.960792 
-246.595230 232.924484 88.792862 49.772267 -6.030936 89.810223 -3.944905 -13.157818 -31.032448 -13.111622 3.761868 41.730070 7.578875 4.300732 -16.711518 nan nan nan -1.299034 -6.101223 14.632421 -3.786772 -7.853052 93.376247 5.930186 -5.108129 -7.406368 nan nan nan -10.399976 11.701716 12.143992 -2.756385 -1.498585 7.838708 -1.743264 2.114240 -6.843536 5.818694 -13.409417 -2.329252 16.846065 -4.484604 -23.083034 -25.228894 -6.487613 4.442091 -37.034069 2.046946 16.210672 175.331058 -64.225912 -143.338603 2.918368 -11.646733 -2.233329 18.949172 7.212876 -1.840714 52.470908 -12.369960 10.214059 3.509217 71.134055 27.789313 17.851223 4.490251 1.328067 
-244.630478 231.312912 88.321236 51.242952 -7.586797 89.864854 -5.279937 -14.924881 -29.720625 -14.858883 3.608755 42.052063 8.542173 4.124280 -17.316149 nan nan nan -2.882186 -5.441905 11.316045 -3.364839 -8.367378 98.077771 6.150800 -4.032276 -8.027023 nan nan nan -11.214909 11.066981 13.346774 -3.300394 -2.717375 7.753549 -2.021716 0.827719 -6.976038 6.429383 -12.738422 -3.219411 17.732803 -3.582437 -23.438516 -26.149445 -9.208314 3.663000 -36.637977 -1.278951 16.701898 172.739102 -63.289282 -140.261494 2.058435 -11.473472 0.890389 19.171019 6.761946 -2.149494 53.142597 -14.627451 9.880310 4.701373 69.705974 30.039590 20.604480 3.694530 3.613452 
-242.622009 229.731064 87.945007 52.838164 -9.199016 89.539310 -7.784304 -16.463127 -27.192065 -15.828422 2.518740 41.618522 9.976871 5.440858 -18.347319 nan nan nan -4.766506 -4.570793 8.164779 -3.034862 -8.973923 102.592086 6.762606 -2.299463 -8.899409 nan nan nan -11.490966 9.984504 15.291294 -4.186647 -3.785528 6.710447 -2.380406 -0.401286 -6.617726 6.880321 -11.863788 -3.282591 18.265709 -3.160476 -24.586997 -26.395153 -10.987647 2.734403 -36.040887 -5.863068 15.593914 173.740921 -63.636263 -140.624135 2.974662 -13.269812 2.491741 18.485840 5.604839 -1.752384 54.542970 -16.604223 9.801246 5.554186 68.853358 30.754716 7.247904 7.473225 3.187697 
-240.665100 227.973343 87.682457 54.011885 -9.771892 88.987758 -9.758340 -15.818699 -24.103026 -16.494088 0.321822 41.624326 11.562520 6.499272 -19.692446 nan nan nan -5.543833 -4.359315 4.713690 -2.858091 -8.884653 106.307971 5.497112 -1.727539 -8.354262 nan nan nan -10.304139 7.885788 20.487648 -5.446179 -5.183927 0.817015 -2.878679 -1.168905 -6.014093 5.901945 -12.225310 -2.528916 19.244353 -1.310226 -23.828863 -25.523092 -10.945249 1.454259 -36.763630 -9.071342 14.181432 177.454484 -63.184210 -143.361294 3.962596 -13.048855 -1.160317 17.016999 4.614925 -0.640885 56.469410 -18.731094 9.384801 10.123308 66.944191 35.648825 2.572848 9.307989 0.601904 
-238.895294 226.300369 87.372459 54.714157 -9.640859 88.079732 -10.750494 -14.350532 -21.010165 -16.783315 -1.307925 42.211697 12.687571 6.590883 -21.616930 nan nan nan -5.650008 -3.955475 1.228987 -2.407174 -8.924397 109.901383 3.595645 -1.619478 -8.006928 nan nan nan -10.132200 7.421894 20.913327 -5.434392 -4.268914 2.681843 -1.911950 -2.814285 -5.738173 5.277633 -12.392423 -4.095352 19.270721 -0.411684 -24.190181 -24.884168 -14.744181 1.579977 -38.460492 -13.453954 12.554583 175.167351 -63.956202 -139.320000 2.146241 -13.489325 2.505346 14.093995 4.171290 -1.626093 58.210819 -21.145892 7.967725 12.504934 66.505275 39.024248 8.219514 8.275991 -2.509962 
-236.927765 224.506927 87.191727 55.575647 -9.199624 87.283668 -11.502770 -12.129796 -17.710525 -17.514228 -4.086423 42.610976 14.403904 7.705404 -23.145735 nan nan nan -5.488178 -4.673015 -2.525967 -1.357606 -8.600168 112.247581 0.571812 -2.576659 -6.344135 nan nan nan -8.843861 5.689798 23.102124 -6.034251 -4.691898 1.041188 -1.663087 -3.728274 -5.305237 3.571384 -13.336349 -3.772401 20.022833 1.857307 -23.793589 -24.006082 -17.202993 0.814333 -39.085042 -16.022304 10.791177 178.958680 -64.063659 -139.123365 8.748967 -9.034471 10.614039 11.567948 4.127608 -1.574875 59.788005 -24.372031 6.336905 18.047840 66.816128 46.099438 7.284954 7.148878 -3.364859 
-234.877304 222.723648 87.037773 56.304768 -8.663954 86.725182 -11.819934 -9.827576 -14.693446 -18.059849 -7.030545 43.083132 15.457018 8.410054 -24.705220 nan nan nan -5.315394 -5.937572 -7.033768 0.609607 -8.700841 114.405528 -2.961127 -0.681497 -8.571325 nan nan nan -7.606172 3.781276 24.413557 -6.383911 -5.099008 -0.416923 -1.487859 -4.646689 -4.579010 2.114895 -12.943150 -3.506163 20.074160 3.049621 -23.580948 -22.772131 -19.069395 0.306138 -39.637939 -19.066319 9.097185 177.809614 -63.990768 -137.307514 11.416124 -8.515701 11.107068 9.612097 3.652301 -0.783442 59.124740 -25.963927 4.924066 26.945867 65.131319 55.848250 6.427369 8.331165 -6.691821 
